{
    "asset" : {
        "generator" : "Khronos glTF Blender I/O v1.8.19",
        "version" : "2.0"
    },
    "scene" : 0,
    "scenes" : [
        {
            "name" : "Scene",
            "nodes" : [
                16
            ]
        }
    ],
    "nodes" : [
        {
            "mesh" : 0,
            "name" : "antenka_leva",
            "translation" : [
                0.605384886264801,
                0.7087173461914062,
                0
            ]
        },
        {
            "mesh" : 1,
            "name" : "antenka_prava",
            "translation" : [
                -0.605805516242981,
                0.7086775302886963,
                0
            ]
        },
        {
            "mesh" : 2,
            "name" : "oko_leva",
            "translation" : [
                0.4429927170276642,
                0.07803726196289062,
                0.7690827250480652
            ]
        },
        {
            "mesh" : 3,
            "name" : "oko_prava",
            "translation" : [
                -0.4226717948913574,
                0.08174848556518555,
                0.7788916230201721
            ]
        },
        {
            "children" : [
                0,
                1,
                2,
                3
            ],
            "mesh" : 4,
            "name" : "hlava",
            "rotation" : [
                3.774895063202166e-08,
                0,
                0,
                1
            ],
            "translation" : [
                -0.014139949344098568,
                0.3901611566543579,
                -4.736136816063663e-09
            ]
        },
        {
            "children" : [
                4
            ],
            "name" : "hlava",
            "translation" : [
                0,
                1.7120590209960938,
                0
            ]
        },
        {
            "mesh" : 5,
            "name" : "ruka_leva",
            "rotation" : [
                1,
                -5.06252873145761e-15,
                7.549789415861596e-08,
                1.718593978239369e-07
            ],
            "translation" : [
                -0.015038490295410156,
                0.505984902381897,
                -2.562464374022966e-07
            ]
        },
        {
            "children" : [
                6
            ],
            "name" : "ruka_leva",
            "rotation" : [
                -1,
                0,
                -7.549790126404332e-08,
                2.0960834490324487e-07
            ],
            "translation" : [
                1.291081190109253,
                1.5357038974761963,
                -3.69778021536149e-08
            ]
        },
        {
            "mesh" : 6,
            "name" : "ruka_prava",
            "rotation" : [
                1,
                5.06252873145761e-15,
                -7.549789415861596e-08,
                1.718593978239369e-07
            ],
            "translation" : [
                0.011007070541381836,
                0.505984902381897,
                -2.556377012297162e-07
            ]
        },
        {
            "children" : [
                8
            ],
            "name" : "ruka_prava",
            "rotation" : [
                -1,
                0,
                7.549790126404332e-08,
                2.0960834490324487e-07
            ],
            "translation" : [
                -1.3115872144699097,
                1.5357038974761963,
                -3.69778021536149e-08
            ]
        },
        {
            "mesh" : 7,
            "name" : "noha_leva",
            "rotation" : [
                1,
                9.044779858413676e-08,
                7.549789415861596e-08,
                2.4660778308316367e-07
            ],
            "translation" : [
                -0.05614656209945679,
                0.48220378160476685,
                -3.8781493572059844e-07
            ]
        },
        {
            "children" : [
                10
            ],
            "name" : "noha_leva",
            "rotation" : [
                -1,
                -9.148861579433287e-08,
                -7.549790126404332e-08,
                2.8435673016247165e-07
            ],
            "translation" : [
                0.41305360198020935,
                -0.022951960563659668,
                -3.641268335741188e-07
            ]
        },
        {
            "mesh" : 8,
            "name" : "noha_prava",
            "rotation" : [
                1,
                -9.044779858413676e-08,
                -7.549789415861596e-08,
                2.4660778308316367e-07
            ],
            "translation" : [
                0.028117597103118896,
                0.48220379650592804,
                -3.835826873910264e-07
            ]
        },
        {
            "children" : [
                12
            ],
            "name" : "noha_prava",
            "rotation" : [
                -1,
                9.148861579433287e-08,
                7.549790126404332e-08,
                2.8435673016247165e-07
            ],
            "translation" : [
                -0.41305360198020935,
                -0.022951960563659668,
                -3.641268335741188e-07
            ]
        },
        {
            "mesh" : 9,
            "name" : "telo",
            "rotation" : [
                3.774895063202166e-08,
                0,
                0,
                1
            ],
            "translation" : [
                0,
                0.9593017101287842,
                7.242526578465913e-08
            ]
        },
        {
            "children" : [
                5,
                7,
                9,
                11,
                13,
                14
            ],
            "name" : "Back",
            "rotation" : [
                -3.774895063202166e-08,
                0,
                0,
                1
            ]
        },
        {
            "children" : [
                15
            ],
            "name" : "Armature",
            "translation" : [
                0,
                -0.9593017101287842,
                0
            ]
        }
    ],
    "materials" : [
        {
            "doubleSided" : true,
            "name" : "android",
            "pbrMetallicRoughness" : {
                "baseColorFactor" : [
                    0.37123775482177734,
                    0.5647115707397461,
                    0.04091520607471466,
                    1
                ],
                "metallicFactor" : 0,
                "roughnessFactor" : 0.5
            }
        },
        {
            "doubleSided" : true,
            "name" : "oko",
            "pbrMetallicRoughness" : {
                "baseColorFactor" : [
                    0,
                    0,
                    0,
                    1
                ],
                "metallicFactor" : 0,
                "roughnessFactor" : 0.5
            }
        }
    ],
    "meshes" : [
        {
            "name" : "Sphere.004",
            "primitives" : [
                {
                    "attributes" : {
                        "POSITION" : 0,
                        "NORMAL" : 1
                    },
                    "indices" : 2,
                    "material" : 0
                }
            ]
        },
        {
            "name" : "Sphere.003",
            "primitives" : [
                {
                    "attributes" : {
                        "POSITION" : 3,
                        "NORMAL" : 4
                    },
                    "indices" : 2,
                    "material" : 0
                }
            ]
        },
        {
            "name" : "Sphere.007",
            "primitives" : [
                {
                    "attributes" : {
                        "POSITION" : 5,
                        "NORMAL" : 6
                    },
                    "indices" : 7,
                    "material" : 1
                }
            ]
        },
        {
            "name" : "Sphere.008",
            "primitives" : [
                {
                    "attributes" : {
                        "POSITION" : 8,
                        "NORMAL" : 9
                    },
                    "indices" : 7,
                    "material" : 1
                }
            ]
        },
        {
            "name" : "Sphere",
            "primitives" : [
                {
                    "attributes" : {
                        "POSITION" : 10,
                        "NORMAL" : 11
                    },
                    "indices" : 12,
                    "material" : 0
                }
            ]
        },
        {
            "name" : "Sphere.006",
            "primitives" : [
                {
                    "attributes" : {
                        "POSITION" : 13,
                        "NORMAL" : 14
                    },
                    "indices" : 15,
                    "material" : 0
                }
            ]
        },
        {
            "name" : "Sphere.005",
            "primitives" : [
                {
                    "attributes" : {
                        "POSITION" : 16,
                        "NORMAL" : 17
                    },
                    "indices" : 15,
                    "material" : 0
                }
            ]
        },
        {
            "name" : "Sphere.001",
            "primitives" : [
                {
                    "attributes" : {
                        "POSITION" : 18,
                        "NORMAL" : 19
                    },
                    "indices" : 2,
                    "material" : 0
                }
            ]
        },
        {
            "name" : "Sphere.002",
            "primitives" : [
                {
                    "attributes" : {
                        "POSITION" : 20,
                        "NORMAL" : 21
                    },
                    "indices" : 2,
                    "material" : 0
                }
            ]
        },
        {
            "name" : "Cylinder",
            "primitives" : [
                {
                    "attributes" : {
                        "POSITION" : 22,
                        "NORMAL" : 23
                    },
                    "indices" : 24,
                    "material" : 0
                }
            ]
        }
    ],
    "accessors" : [
        {
            "bufferView" : 0,
            "componentType" : 5126,
            "count" : 289,
            "max" : [
                0.04154808819293976,
                0.049926381558179855,
                0.0305782463401556
            ],
            "min" : [
                -0.18480226397514343,
                -0.2937350273132324,
                -0.030578307807445526
            ],
            "type" : "VEC3"
        },
        {
            "bufferView" : 1,
            "componentType" : 5126,
            "count" : 289,
            "type" : "VEC3"
        },
        {
            "bufferView" : 2,
            "componentType" : 5123,
            "count" : 1632,
            "type" : "SCALAR"
        },
        {
            "bufferView" : 3,
            "componentType" : 5126,
            "count" : 289,
            "max" : [
                0.1842743456363678,
                0.049967046827077866,
                0.0305782463401556
            ],
            "min" : [
                -0.0414784774184227,
                -0.29404041171073914,
                -0.030578307807445526
            ],
            "type" : "VEC3"
        },
        {
            "bufferView" : 4,
            "componentType" : 5126,
            "count" : 289,
            "type" : "VEC3"
        },
        {
            "bufferView" : 5,
            "componentType" : 5126,
            "count" : 97,
            "max" : [
                0.07109537720680237,
                0.07250261306762695,
                0.046580102294683456
            ],
            "min" : [
                -0.08218102902173996,
                -0.0831240713596344,
                -0.06492920964956284
            ],
            "type" : "VEC3"
        },
        {
            "bufferView" : 6,
            "componentType" : 5126,
            "count" : 97,
            "type" : "VEC3"
        },
        {
            "bufferView" : 7,
            "componentType" : 5123,
            "count" : 480,
            "type" : "SCALAR"
        },
        {
            "bufferView" : 8,
            "componentType" : 5126,
            "count" : 97,
            "max" : [
                0.08358656615018845,
                0.07111532241106033,
                0.04516967758536339
            ],
            "min" : [
                -0.07352937012910843,
                -0.08232548832893372,
                -0.06375950574874878
            ],
            "type" : "VEC3"
        },
        {
            "bufferView" : 9,
            "componentType" : 5126,
            "count" : 97,
            "type" : "VEC3"
        },
        {
            "bufferView" : 10,
            "componentType" : 5126,
            "count" : 418,
            "max" : [
                0.9891300201416016,
                0.6386420726776123,
                0.989129900932312
            ],
            "min" : [
                -0.989130437374115,
                -0.35048800706863403,
                -0.9891300201416016
            ],
            "type" : "VEC3"
        },
        {
            "bufferView" : 11,
            "componentType" : 5126,
            "count" : 418,
            "type" : "VEC3"
        },
        {
            "bufferView" : 12,
            "componentType" : 5123,
            "count" : 2496,
            "type" : "SCALAR"
        },
        {
            "bufferView" : 13,
            "componentType" : 5126,
            "count" : 514,
            "max" : [
                0.22239312529563904,
                0.6905390024185181,
                0.22239306569099426
            ],
            "min" : [
                -0.22239315509796143,
                -0.6905380487442017,
                -0.22239311039447784
            ],
            "type" : "VEC3"
        },
        {
            "bufferView" : 14,
            "componentType" : 5126,
            "count" : 514,
            "type" : "VEC3"
        },
        {
            "bufferView" : 15,
            "componentType" : 5123,
            "count" : 3072,
            "type" : "SCALAR"
        },
        {
            "bufferView" : 16,
            "componentType" : 5126,
            "count" : 514,
            "max" : [
                0.22239312529563904,
                0.6905390024185181,
                0.22239306569099426
            ],
            "min" : [
                -0.22239315509796143,
                -0.6905380487442017,
                -0.22239311039447784
            ],
            "type" : "VEC3"
        },
        {
            "bufferView" : 17,
            "componentType" : 5126,
            "count" : 514,
            "type" : "VEC3"
        },
        {
            "bufferView" : 18,
            "componentType" : 5126,
            "count" : 289,
            "max" : [
                0.22540494799613953,
                0.862450897693634,
                0.22540491819381714
            ],
            "min" : [
                -0.22540505230426788,
                -0.20346839725971222,
                -0.2254049926996231
            ],
            "type" : "VEC3"
        },
        {
            "bufferView" : 19,
            "componentType" : 5126,
            "count" : 289,
            "type" : "VEC3"
        },
        {
            "bufferView" : 20,
            "componentType" : 5126,
            "count" : 289,
            "max" : [
                0.22540494799613953,
                0.862450897693634,
                0.22540491819381714
            ],
            "min" : [
                -0.22540505230426788,
                -0.20346839725971222,
                -0.2254049926996231
            ],
            "type" : "VEC3"
        },
        {
            "bufferView" : 21,
            "componentType" : 5126,
            "count" : 289,
            "type" : "VEC3"
        },
        {
            "bufferView" : 22,
            "componentType" : 5126,
            "count" : 290,
            "max" : [
                0.9799814820289612,
                0.7158015370368958,
                0.981218695640564
            ],
            "min" : [
                -1.002701759338379,
                -0.963192343711853,
                -0.981218695640564
            ],
            "type" : "VEC3"
        },
        {
            "bufferView" : 23,
            "componentType" : 5126,
            "count" : 290,
            "type" : "VEC3"
        },
        {
            "bufferView" : 24,
            "componentType" : 5123,
            "count" : 1728,
            "type" : "SCALAR"
        }
    ],
    "bufferViews" : [
        {
            "buffer" : 0,
            "byteLength" : 3468,
            "byteOffset" : 0
        },
        {
            "buffer" : 0,
            "byteLength" : 3468,
            "byteOffset" : 3468
        },
        {
            "buffer" : 0,
            "byteLength" : 3264,
            "byteOffset" : 6936
        },
        {
            "buffer" : 0,
            "byteLength" : 3468,
            "byteOffset" : 10200
        },
        {
            "buffer" : 0,
            "byteLength" : 3468,
            "byteOffset" : 13668
        },
        {
            "buffer" : 0,
            "byteLength" : 1164,
            "byteOffset" : 17136
        },
        {
            "buffer" : 0,
            "byteLength" : 1164,
            "byteOffset" : 18300
        },
        {
            "buffer" : 0,
            "byteLength" : 960,
            "byteOffset" : 19464
        },
        {
            "buffer" : 0,
            "byteLength" : 1164,
            "byteOffset" : 20424
        },
        {
            "buffer" : 0,
            "byteLength" : 1164,
            "byteOffset" : 21588
        },
        {
            "buffer" : 0,
            "byteLength" : 5016,
            "byteOffset" : 22752
        },
        {
            "buffer" : 0,
            "byteLength" : 5016,
            "byteOffset" : 27768
        },
        {
            "buffer" : 0,
            "byteLength" : 4992,
            "byteOffset" : 32784
        },
        {
            "buffer" : 0,
            "byteLength" : 6168,
            "byteOffset" : 37776
        },
        {
            "buffer" : 0,
            "byteLength" : 6168,
            "byteOffset" : 43944
        },
        {
            "buffer" : 0,
            "byteLength" : 6144,
            "byteOffset" : 50112
        },
        {
            "buffer" : 0,
            "byteLength" : 6168,
            "byteOffset" : 56256
        },
        {
            "buffer" : 0,
            "byteLength" : 6168,
            "byteOffset" : 62424
        },
        {
            "buffer" : 0,
            "byteLength" : 3468,
            "byteOffset" : 68592
        },
        {
            "buffer" : 0,
            "byteLength" : 3468,
            "byteOffset" : 72060
        },
        {
            "buffer" : 0,
            "byteLength" : 3468,
            "byteOffset" : 75528
        },
        {
            "buffer" : 0,
            "byteLength" : 3468,
            "byteOffset" : 78996
        },
        {
            "buffer" : 0,
            "byteLength" : 3480,
            "byteOffset" : 82464
        },
        {
            "buffer" : 0,
            "byteLength" : 3480,
            "byteOffset" : 85944
        },
        {
            "buffer" : 0,
            "byteLength" : 3456,
            "byteOffset" : 89424
        }
    ],
    "buffers" : [
        {
            "byteLength" : 92880,
            "uri" : "data:application/octet-stream;base64,"
        }
    ]
}
